<svg xmlns="http://www.w3.org/2000/svg" viewBox="0 0 153.39 172.72"><defs><style>.cls-1{fill:#212121;}.cls-2{fill:#e2e1e0;}.cls-3{fill:#fefcfb;}.cls-4{fill:#333230;}.cls-5{fill:#b7b7b7;}.cls-6{fill:#a9541c;}.cls-7{fill:#fefdfd;}.cls-8{fill:#ea9735;}</style></defs><g id="Calque_2" data-name="Calque 2"><g id="Calque_1-2" data-name="Calque 1"><path class="cls-1" d="M153.35,86.36c0,11.72-.1,23.44,0,35.17a14.69,14.69,0,0,1-7.89,13.83q-30.42,17.56-60.87,35.08a14.65,14.65,0,0,1-15.6.07q-30.6-17.62-61.22-35.23A14.75,14.75,0,0,1,0,121.72Q0,86.37,0,51c0-5.54,2.27-10,7.1-12.76Q38.46,20,69.87,2A13.19,13.19,0,0,1,83.76,2Q115,20,146.18,38.15c5,2.88,7.23,7.28,7.19,13C153.29,62.91,153.35,74.64,153.35,86.36ZM101.52,38.27c-.86-1.23-1.46-2.88-2.63-3.59a44.11,44.11,0,0,0-8.33-3.95A52.46,52.46,0,0,0,79,27.6c-2.7-.29-5.57,1-8.37,1.59a63.37,63.37,0,0,1-8.8,1.47c-5.21.23-7.69,2.36-8.11,7.6-2.1.09-3.74.43-4.22,3.11-2.31,13-3.52,26.19-.41,39,4.75,19.64,7.39,39.13,2.72,59.12-.89,3.83,1.84,6.59,6,6.6q19.08.07,38.16,0c4.75,0,7-2.81,6-7.61a106.72,106.72,0,0,1,1.38-50.67c4.12-15,4.16-30.29,1.17-45.56C104.18,40.49,104.17,38.35,101.52,38.27Z"/><path class="cls-2" d="M101.52,38.27c2.65.08,2.66,2.22,3,4,3,15.27,3,30.54-1.17,45.56A106.72,106.72,0,0,0,102,138.48c1,4.8-1.26,7.6-6,7.61q-19.08.07-38.16,0c-4.2,0-6.93-2.77-6-6.6,4.67-20,2-39.48-2.72-59.12-3.11-12.81-1.9-26,.41-39,.48-2.68,2.12-3,4.22-3.11h.77A11.52,11.52,0,0,0,57.2,39q20.43.07,40.87,0a11.52,11.52,0,0,0,2.75-.68h.7ZM77,40.31c-7.61,0-15.22.06-22.83-.05-2,0-3,.65-3.29,2.6C48.75,55,48.17,67.13,50.37,79.29c1.73,9.55,4.72,19,5.22,28.61.54,10.1-1.18,20.32-2,30.48-.39,5,.6,6.2,5.38,6.21q18.15,0,36.3,0c4.2,0,5.8-1.72,5-5.73A113.34,113.34,0,0,1,102.09,86c3.83-14,3.72-28.34,1-42.64-.43-2.3-1.34-3.11-3.67-3.07C92,40.38,84.48,40.31,77,40.31Z"/><path class="cls-3" d="M101.52,38.27H53.68c.42-5.24,2.9-7.37,8.11-7.6a63.37,63.37,0,0,0,8.8-1.47c2.8-.54,5.67-1.88,8.37-1.59a52.46,52.46,0,0,1,11.6,3.13,44.11,44.11,0,0,1,8.33,3.95C100.06,35.39,100.66,37,101.52,38.27Z"/><path class="cls-4" d="M77,40.31c7.48,0,15,.07,22.45-.05,2.33,0,3.24.77,3.67,3.07,2.69,14.3,2.8,28.64-1,42.64a113.34,113.34,0,0,0-1.81,52.89c.81,4-.79,5.72-5,5.73q-18.15,0-36.3,0c-4.78,0-5.77-1.26-5.38-6.21.8-10.16,2.52-20.38,2-30.48-.5-9.6-3.49-19.06-5.22-28.61-2.2-12.16-1.62-24.31.51-36.43.34-2,1.28-2.63,3.29-2.6C61.78,40.37,69.39,40.31,77,40.31ZM102.31,60.1c-.44-5.75-.89-11.49-1.35-17.34-15.64,0-30.43,0-45.22.1a3.74,3.74,0,0,0-2.68,2.41c-.73,4.9-1.08,9.86-1.57,14.79-.91,12.11,2.5,23.61,4.78,35.29a140.3,140.3,0,0,1,2.45,19.9c.21,4.53-.9,9.11-1.27,13.68-.34,4.19.58,5.12,4.78,5.13,9.22,0,18.45-.19,27.66.07,7.65.22,6.84-2.45,6.31-7.26a93.7,93.7,0,0,1,1.3-31.11C100.15,84,103.25,72.32,102.31,60.1Z"/><path class="cls-5" d="M54.45,38.27h46.37a11.52,11.52,0,0,1-2.75.68Q77.64,39,57.2,39A11.52,11.52,0,0,1,54.45,38.27Z"/><path class="cls-6" d="M102.31,60.1c.94,12.22-2.16,23.92-4.81,35.66a93.7,93.7,0,0,0-1.3,31.11c.53,4.81,1.34,7.48-6.31,7.26-9.21-.26-18.44,0-27.66-.07-4.2,0-5.12-.94-4.78-5.13.37-4.57,1.48-9.15,1.27-13.68a140.3,140.3,0,0,0-2.45-19.9C54,83.67,50.58,72.17,51.49,60.06l3,.16.61.42c.06,4.1,0,8.2.29,12.28.09,1.13,1.39,2.17,2.14,3.26a20.2,20.2,0,0,0,2.1-3.36,8.85,8.85,0,0,0,.06-3V60.18L61.2,60a16.46,16.46,0,0,1,.68,3.26c.06,7.95,0,15.9.12,23.84,0,1.13,1.12,2.23,1.72,3.34l2.92-2.1a35.61,35.61,0,0,0,.47-4c.07-8,.08-16.06.11-24.08Z"/><path class="cls-7" d="M102.31,60.1l-35.09.2c-.26.5-.73,1-.73,1.5,0,8.85.09,17.7.15,26.55l-2.92,2.1c-.6-1.11-1.7-2.21-1.72-3.34-.16-7.94-.06-15.89-.12-23.84A16.46,16.46,0,0,0,61.2,60l-1.53.17v9.68a8.85,8.85,0,0,1-.06,3,20.2,20.2,0,0,1-2.1,3.36c-.75-1.09-2-2.13-2.14-3.26-.32-4.08-.23-8.18-.29-12.27l-.61-.43-3-.16c.49-4.93.84-9.89,1.57-14.79a3.74,3.74,0,0,1,2.68-2.41c14.79-.15,29.58-.1,45.22-.1C101.42,48.61,101.87,54.35,102.31,60.1Z"/><path class="cls-8" d="M54.47,60.22l.61.43Z"/></g></g></svg>